<svg width="2493" height="1011" viewBox="0 0 2493 1011" fill="none" xmlns="http://www.w3.org/2000/svg">
<path fill-rule="evenodd" clip-rule="evenodd" d="M1485.99 126H512.006C504.271 126 497.27 129.133 492.203 134.197C487.134 139.264 484 146.263 484 153.994V821.006C484 828.733 487.135 835.733 492.205 840.801C497.273 845.866 504.274 849 512.006 849H1485.99C1493.73 849 1500.73 845.867 1505.8 840.803C1510.87 835.736 1514 828.737 1514 821.006V153.994C1514 146.267 1510.86 139.267 1505.79 134.199C1500.73 129.134 1493.73 126 1485.99 126Z" fill="white" stroke="#141C3A" stroke-width="8"/>
<path fill-rule="evenodd" clip-rule="evenodd" d="M1438.01 188H558.993C555.683 188 552.683 189.344 550.511 191.52C548.342 193.692 547 196.692 547 200.006V696.994C547 700.308 548.342 703.309 550.511 705.481C552.682 707.656 555.681 709 558.993 709H1438.01C1441.32 709 1444.32 707.656 1446.49 705.48C1448.66 703.308 1450 700.308 1450 696.994V200.006C1450 196.692 1448.66 193.691 1446.49 191.519C1444.32 189.344 1441.32 188 1438.01 188Z" fill="#B6B6B6" stroke="#B6B6B6" stroke-width="8"/>
<path fill-rule="evenodd" clip-rule="evenodd" d="M1073.35 849H925.65L915.679 978H1083.32L1073.35 849Z" fill="white" stroke="#141C3A" stroke-width="8"/>
<path fill-rule="evenodd" clip-rule="evenodd" d="M1144 1007H855.002C854.726 1007 854.476 1006.89 854.295 1006.71C854.112 1006.52 854 1006.27 854 1005.99V992.5C854 988.495 855.623 984.871 858.248 982.247C860.873 979.623 864.5 978 868.506 978H1130.49C1134.5 978 1138.13 979.624 1140.75 982.248C1143.38 984.872 1145 988.496 1145 992.5V1005.99C1145 1006.27 1144.89 1006.52 1144.71 1006.71C1144.53 1006.89 1144.27 1007 1144 1007Z" fill="white" stroke="#141C3A" stroke-width="8"/>
<path d="M999.5 803C1009.72 803 1018 794.717 1018 784.5C1018 774.283 1009.72 766 999.5 766C989.283 766 981 774.283 981 784.5C981 794.717 989.283 803 999.5 803Z" stroke="#141C3A" stroke-width="8"/>
<path d="M563 618H413C399.745 618 389 628.745 389 642V983C389 996.255 399.745 1007 413 1007H563C576.255 1007 587 996.255 587 983V642C587 628.745 576.255 618 563 618Z" fill="white" stroke="#141C3A" stroke-width="8"/>
<path fill-rule="evenodd" clip-rule="evenodd" d="M587 662H389V949.3H587V662Z" fill="#141C3A" stroke="#141C3A" stroke-width="8"/>
<path d="M532 636H445C442.791 636 441 637.791 441 640C441 642.209 442.791 644 445 644H532C534.209 644 536 642.209 536 640C536 637.791 534.209 636 532 636Z" fill="#141C3A"/>
<path d="M499.8 977.4C499.8 971.104 494.696 966 488.4 966C482.104 966 477 971.104 477 977.4C477 983.696 482.104 988.8 488.4 988.8C494.696 988.8 499.8 983.696 499.8 977.4Z" fill="#141C3A"/>
<path d="M445 820C453.284 820 460 813.284 460 805C460 796.716 453.284 790 445 790C436.716 790 430 796.716 430 805C430 813.284 436.716 820 445 820Z" fill="#B6B6B6" stroke="#B6B6B6" stroke-width="8"/>
<path d="M546 779H484C481.791 779 480 780.791 480 783C480 785.209 481.791 787 484 787H546C548.209 787 550 785.209 550 783C550 780.791 548.209 779 546 779Z" fill="white"/>
<path d="M526 801H484C481.791 801 480 802.791 480 805C480 807.209 481.791 809 484 809H526C528.209 809 530 807.209 530 805C530 802.791 528.209 801 526 801Z" fill="white"/>
<path d="M506 823H484C481.791 823 480 824.791 480 827C480 829.209 481.791 831 484 831H506C508.209 831 510 829.209 510 827C510 824.791 508.209 823 506 823Z" fill="white"/>
<path d="M287.5 807C372.276 807 441 738.276 441 653.5C441 568.724 372.276 500 287.5 500C202.724 500 134 568.724 134 653.5C134 738.276 202.724 807 287.5 807Z" fill="#5BD8E9" stroke="#141C3A" stroke-width="8"/>
<path fill-rule="evenodd" clip-rule="evenodd" d="M1940.01 468H1255.99C1248.26 468 1241.26 471.134 1236.2 476.2C1231.13 481.267 1228 488.267 1228 496V937C1228 944.728 1231.13 951.729 1236.2 956.797C1241.27 961.865 1248.26 965 1255.99 965H1940.01C1947.74 965 1954.74 961.866 1959.8 956.8C1964.87 951.733 1968 944.733 1968 937V496C1968 488.272 1964.87 481.271 1959.8 476.203C1954.73 471.135 1947.74 468 1940.01 468Z" fill="white" stroke="#141C3A" stroke-width="8"/>
<path fill-rule="evenodd" clip-rule="evenodd" d="M2018.01 965H1177.99C1177.72 965 1177.47 965.111 1177.29 965.291C1177.11 965.472 1177 965.723 1177 966V986C1177 991.8 1179.35 997.049 1183.15 1000.85C1186.95 1004.65 1192.21 1007 1198.01 1007H1997.99C2003.79 1007 2009.05 1004.65 2012.85 1000.85C2016.65 997.049 2019 991.799 2019 986V966C2019 965.723 2018.89 965.473 2018.71 965.291C2018.53 965.113 2018.28 965 2018.01 965Z" fill="white" stroke="#141C3A" stroke-width="8"/>
<path fill-rule="evenodd" clip-rule="evenodd" d="M1653.29 965.449L1541.31 965.449C1543.26 970.584 1546.53 975.065 1550.71 978.477C1556.05 982.836 1562.87 985.448 1570.29 985.448H1624.3C1631.73 985.448 1638.55 982.835 1643.89 978.476C1648.07 975.064 1651.34 970.583 1653.29 965.449Z" fill="white" stroke="#141C3A" stroke-width="8"/>
<path d="M1930.41 511H1265C1260.58 511 1257 514.582 1257 519V914.85C1257 919.268 1260.58 922.85 1265 922.85H1930.41C1934.82 922.85 1938.41 919.268 1938.41 914.85V519C1938.41 514.582 1934.82 511 1930.41 511Z" fill="#5BD8E9"/>
<path d="M977 202C979.761 202 982 199.761 982 197C982 194.239 979.761 192 977 192C974.239 192 972 194.239 972 197C972 199.761 974.239 202 977 202Z" fill="#293347"/>
<path fill-rule="evenodd" clip-rule="evenodd" d="M1145 59H699V494.001C699 499.527 701.238 504.525 704.858 508.143C708.479 511.763 713.482 514 719.009 514H1124.99C1130.52 514 1135.52 511.762 1139.14 508.142C1142.76 504.524 1145 499.524 1145 494.001V59Z" fill="#141C3A" stroke="#141C3A" stroke-width="8"/>
<path fill-rule="evenodd" clip-rule="evenodd" d="M1124.99 4H719.009C713.483 4 708.481 6.23881 704.86 9.85877C701.239 13.4787 699 18.4798 699 24.0038V51H1145V24.0038C1145 18.4814 1142.76 13.4803 1139.14 9.85986C1135.52 6.23979 1130.52 4 1124.99 4Z" fill="white" stroke="#141C3A" stroke-width="8"/>
<path d="M734 37C738.971 37 743 32.9706 743 28C743 23.0294 738.971 19 734 19C729.029 19 725 23.0294 725 28C725 32.9706 729.029 37 734 37Z" fill="#141C3A"/>
<path d="M764 37C768.971 37 773 32.9706 773 28C773 23.0294 768.971 19 764 19C759.029 19 755 23.0294 755 28C755 32.9706 759.029 37 764 37Z" fill="#B6B6B6"/>
<path d="M794 37C798.971 37 803 32.9706 803 28C803 23.0294 798.971 19 794 19C789.029 19 785 23.0294 785 28C785 32.9706 789.029 37 794 37Z" fill="#5BD8E9"/>
<path opacity="0.54" d="M761 343H751C748.791 343 747 344.791 747 347C747 349.209 748.791 351 751 351H761C763.209 351 765 349.209 765 347C765 344.791 763.209 343 761 343Z" fill="#535B6B"/>
<path opacity="0.54" d="M761 143H751C748.791 143 747 144.791 747 147C747 149.209 748.791 151 751 151H761C763.209 151 765 149.209 765 147C765 144.791 763.209 143 761 143Z" fill="#535B6B"/>
<path fill-rule="evenodd" clip-rule="evenodd" d="M781 143H808C810.209 143 812 144.791 812 147C812 149.209 810.209 151 808 151H781C778.791 151 777 149.209 777 147C777 144.791 778.791 143 781 143Z" fill="#B6B6B6"/>
<path fill-rule="evenodd" clip-rule="evenodd" d="M826 143H853C855.209 143 857 144.791 857 147C857 149.209 855.209 151 853 151H826C823.791 151 822 149.209 822 147C822 144.791 823.791 143 826 143Z" fill="#5BD8E9"/>
<path fill-rule="evenodd" clip-rule="evenodd" d="M871 143H921C923.209 143 925 144.791 925 147C925 149.209 923.209 151 921 151H871C868.791 151 867 149.209 867 147C867 144.791 868.791 143 871 143Z" fill="#B6B6B6"/>
<path fill-rule="evenodd" clip-rule="evenodd" d="M939 143H1013C1015.21 143 1017 144.791 1017 147C1017 149.209 1015.21 151 1013 151H939C936.791 151 935 149.209 935 147C935 144.791 936.791 143 939 143Z" fill="#B6B6B6"/>
<path opacity="0.54" d="M761 183H751C748.791 183 747 184.791 747 187C747 189.209 748.791 191 751 191H761C763.209 191 765 189.209 765 187C765 184.791 763.209 183 761 183Z" fill="#535B6B"/>
<path opacity="0.54" d="M761 223H751C748.791 223 747 224.791 747 227C747 229.209 748.791 231 751 231H761C763.209 231 765 229.209 765 227C765 224.791 763.209 223 761 223Z" fill="#535B6B"/>
<path opacity="0.54" d="M761 263H751C748.791 263 747 264.791 747 267C747 269.209 748.791 271 751 271H761C763.209 271 765 269.209 765 267C765 264.791 763.209 263 761 263Z" fill="#535B6B"/>
<path opacity="0.54" d="M761 303H751C748.791 303 747 304.791 747 307C747 309.209 748.791 311 751 311H761C763.209 311 765 309.209 765 307C765 304.791 763.209 303 761 303Z" fill="#535B6B"/>
<path opacity="0.54" d="M761 383H751C748.791 383 747 384.791 747 387C747 389.209 748.791 391 751 391H761C763.209 391 765 389.209 765 387C765 384.791 763.209 383 761 383Z" fill="#535B6B"/>
<path opacity="0.54" d="M761 423H751C748.791 423 747 424.791 747 427C747 429.209 748.791 431 751 431H761C763.209 431 765 429.209 765 427C765 424.791 763.209 423 761 423Z" fill="#535B6B"/>
<path d="M843 183H781C778.791 183 777 184.791 777 187C777 189.209 778.791 191 781 191H843C845.209 191 847 189.209 847 187C847 184.791 845.209 183 843 183Z" fill="#B6B6B6"/>
<path d="M973 183H861C858.791 183 857 184.791 857 187C857 189.209 858.791 191 861 191H973C975.209 191 977 189.209 977 187C977 184.791 975.209 183 973 183Z" fill="#5BD8E9"/>
<path d="M1033 183H991C988.791 183 987 184.791 987 187C987 189.209 988.791 191 991 191H1033C1035.21 191 1037 189.209 1037 187C1037 184.791 1035.21 183 1033 183Z" fill="#B6B6B6"/>
<path d="M823 223H781C778.791 223 777 224.791 777 227C777 229.209 778.791 231 781 231H823C825.209 231 827 229.209 827 227C827 224.791 825.209 223 823 223Z" fill="#5BD8E9"/>
<path d="M883 223H841C838.791 223 837 224.791 837 227C837 229.209 838.791 231 841 231H883C885.209 231 887 229.209 887 227C887 224.791 885.209 223 883 223Z" fill="#B6B6B6"/>
<path d="M923 223H901C898.791 223 897 224.791 897 227C897 229.209 898.791 231 901 231H923C925.209 231 927 229.209 927 227C927 224.791 925.209 223 923 223Z" fill="#B6B6B6"/>
<path d="M873 263H781C778.791 263 777 264.791 777 267C777 269.209 778.791 271 781 271H873C875.209 271 877 269.209 877 267C877 264.791 875.209 263 873 263Z" fill="#B6B6B6"/>
<path d="M953 263H891C888.791 263 887 264.791 887 267C887 269.209 888.791 271 891 271H953C955.209 271 957 269.209 957 267C957 264.791 955.209 263 953 263Z" fill="#B6B6B6"/>
<path d="M873 303H781C778.791 303 777 304.791 777 307C777 309.209 778.791 311 781 311H873C875.209 311 877 309.209 877 307C877 304.791 875.209 303 873 303Z" fill="#B6B6B6"/>
<path d="M1013 303H891C888.791 303 887 304.791 887 307C887 309.209 888.791 311 891 311H1013C1015.21 311 1017 309.209 1017 307C1017 304.791 1015.21 303 1013 303Z" fill="#5BD8E9"/>
<path d="M843 343H781C778.791 343 777 344.791 777 347C777 349.209 778.791 351 781 351H843C845.209 351 847 349.209 847 347C847 344.791 845.209 343 843 343Z" fill="#B6B6B6"/>
<path d="M923 343H861C858.791 343 857 344.791 857 347C857 349.209 858.791 351 861 351H923C925.209 351 927 349.209 927 347C927 344.791 925.209 343 923 343Z" fill="#5BD8E9"/>
<path d="M973 343H941C938.791 343 937 344.791 937 347C937 349.209 938.791 351 941 351H973C975.209 351 977 349.209 977 347C977 344.791 975.209 343 973 343Z" fill="#B6B6B6"/>
<path d="M903 383H781C778.791 383 777 384.791 777 387C777 389.209 778.791 391 781 391H903C905.209 391 907 389.209 907 387C907 384.791 905.209 383 903 383Z" fill="#B6B6B6"/>
<path d="M833 423H781C778.791 423 777 424.791 777 427C777 429.209 778.791 431 781 431H833C835.209 431 837 429.209 837 427C837 424.791 835.209 423 833 423Z" fill="#5BD8E9"/>
<path fill-rule="evenodd" clip-rule="evenodd" d="M2142 365H1594V754.996C1594 762.731 1597.13 769.732 1602.2 774.799C1607.27 779.866 1614.27 783 1622.01 783H2113.99C2121.73 783 2128.73 779.866 2133.8 774.8C2138.87 769.733 2142 762.731 2142 754.996V365Z" fill="white" stroke="#141C3A" stroke-width="8"/>
<path fill-rule="evenodd" clip-rule="evenodd" d="M2113.99 315H1622.01C1614.27 315 1607.27 318.132 1602.2 323.196C1597.13 328.262 1594 335.262 1594 342.993V373H2142V342.993C2142 335.263 2138.86 328.264 2133.8 323.198C2128.73 318.133 2121.72 315 2113.99 315Z" fill="#141C3A" stroke="#141C3A" stroke-width="8"/>
<path d="M1637 353C1641.97 353 1646 348.971 1646 344C1646 339.029 1641.97 335 1637 335C1632.03 335 1628 339.029 1628 344C1628 348.971 1632.03 353 1637 353Z" fill="white"/>
<path d="M1667 353C1671.97 353 1676 348.971 1676 344C1676 339.029 1671.97 335 1667 335C1662.03 335 1658 339.029 1658 344C1658 348.971 1662.03 353 1667 353Z" fill="#B6B6B6"/>
<path d="M1697 353C1701.97 353 1706 348.971 1706 344C1706 339.029 1701.97 335 1697 335C1692.03 335 1688 339.029 1688 344C1688 348.971 1692.03 353 1697 353Z" fill="#5BD8E9"/>
<path d="M1933 674C1988.23 674 2033 629.228 2033 574C2033 518.772 1988.23 474 1933 474C1877.77 474 1833 518.772 1833 574C1833 629.228 1877.77 674 1933 674Z" stroke="#B6B6B6" stroke-width="9"/>
<path fill-rule="evenodd" clip-rule="evenodd" d="M1946 462H1922V486H1946V462Z" fill="#FFFFFE" stroke="#5BD8E9" stroke-width="8"/>
<path fill-rule="evenodd" clip-rule="evenodd" d="M1945 662H1921V686H1945V662Z" fill="#FFFFFE" stroke="#5BD8E9" stroke-width="8"/>
<path fill-rule="evenodd" clip-rule="evenodd" d="M1845 563H1821V587H1845V563Z" fill="#FFFFFE" stroke="#5BD8E9" stroke-width="8"/>
<path d="M2033 484V559" stroke="#141C3A" stroke-width="8" stroke-linecap="square"/>
<path d="M2033 589V664" stroke="#141C3A" stroke-width="8" stroke-linecap="square"/>
<path d="M2033 493C2039.63 493 2045 487.627 2045 481C2045 474.373 2039.63 469 2033 469C2026.37 469 2021 474.373 2021 481C2021 487.627 2026.37 493 2033 493Z" fill="#141C3A"/>
<path d="M2033 683C2039.63 683 2045 677.627 2045 671C2045 664.373 2039.63 659 2033 659C2026.37 659 2021 664.373 2021 671C2021 677.627 2026.37 683 2033 683Z" fill="#141C3A"/>
<path fill-rule="evenodd" clip-rule="evenodd" d="M2044 563H2020V587H2044V563Z" fill="#FFFFFE" stroke="#5BD8E9" stroke-width="8"/>
<path d="M1746 449H1700C1693.37 449 1688 454.373 1688 461V507C1688 513.627 1693.37 519 1700 519H1746C1752.63 519 1758 513.627 1758 507V461C1758 454.373 1752.63 449 1746 449Z" fill="#141C3A"/>
<path d="M1746 539H1700C1693.37 539 1688 544.373 1688 551V597C1688 603.627 1693.37 609 1700 609H1746C1752.63 609 1758 603.627 1758 597V551C1758 544.373 1752.63 539 1746 539Z" fill="#5BD8E9"/>
<path d="M1746 629H1700C1693.37 629 1688 634.373 1688 641V687C1688 693.627 1693.37 699 1700 699H1746C1752.63 699 1758 693.627 1758 687V641C1758 634.373 1752.63 629 1746 629Z" fill="#B6B6B6"/>
<path d="M2429 971C2462.14 971 2489 944.137 2489 911C2489 877.863 2462.14 851 2429 851C2395.86 851 2369 877.863 2369 911C2369 944.137 2395.86 971 2429 971Z" fill="white" stroke="#141C3A" stroke-width="8"/>
<path d="M2429 946C2448.33 946 2464 930.33 2464 911C2464 891.67 2448.33 876 2429 876C2409.67 876 2394 891.67 2394 911C2394 930.33 2409.67 946 2429 946Z" fill="white" stroke="#141C3A" stroke-width="8"/>
<path d="M2349 840C2360.05 840 2369 831.046 2369 820C2369 808.954 2360.05 800 2349 800C2337.95 800 2329 808.954 2329 820C2329 831.046 2337.95 840 2349 840Z" fill="#FFFFFE" stroke="#141C3A" stroke-width="8"/>
<path fill-rule="evenodd" clip-rule="evenodd" d="M2430.93 815H2261C2259.9 815 2258.9 815.448 2258.17 816.172C2257.45 816.895 2257 817.895 2257 819V987C2257 992.523 2259.24 997.523 2262.86 1001.14C2266.48 1004.76 2271.48 1007 2277 1007H2414.93C2420.45 1007 2425.45 1004.76 2429.07 1001.14C2432.69 997.523 2434.93 992.523 2434.93 987V819C2434.93 817.895 2434.48 816.895 2433.76 816.172C2433.03 815.448 2432.03 815 2430.93 815Z" fill="white" stroke="#141C3A" stroke-width="8"/>
<path fill-rule="evenodd" clip-rule="evenodd" d="M2386 869H2350C2347.79 869 2345.79 869.895 2344.34 871.343C2342.9 872.791 2342 874.791 2342 877V925C2342 927.209 2342.9 929.209 2344.34 930.657C2345.79 932.105 2347.79 933 2350 933H2386C2388.21 933 2390.21 932.105 2391.66 930.657C2393.1 929.209 2394 927.209 2394 925V877C2394 874.791 2393.1 872.791 2391.66 871.343C2390.21 869.895 2388.21 869 2386 869Z" fill="#5BD8E9" stroke="#141C3A" stroke-width="8"/>
<path d="M2367.5 816.5V862" stroke="#141C3A" stroke-width="8" stroke-linecap="square"/>
<path fill-rule="evenodd" clip-rule="evenodd" d="M2143 952.2C2126.76 952.2 2112.06 958.781 2101.42 969.422C2091.71 979.137 2085.38 992.237 2084.35 1006.8H2201.65C2200.62 992.237 2194.29 979.137 2184.58 969.422C2173.94 958.781 2159.24 952.2 2143 952.2Z" fill="white" stroke="#141C3A" stroke-width="8.4"/>
<path d="M2147 957C2147 954.791 2145.21 953 2143 953C2140.79 953 2139 954.791 2139 957V962C2139 964.209 2140.79 966 2143 966C2145.21 966 2147 964.209 2147 962V957Z" fill="#141C3A"/>
<path fill-rule="evenodd" clip-rule="evenodd" d="M305 889H63.0005C46.708 889 31.9578 895.604 21.2808 906.281C10.6039 916.958 4 931.708 4 948C4 964.293 10.6039 979.043 21.2808 989.72C31.9578 1000.4 46.708 1007 63.0005 1007H305C306.657 1007 308.157 1006.33 309.243 1005.24C310.328 1004.16 311 1002.66 311 1001V991.715C311 989.616 310.189 987.695 308.854 986.262C307.519 984.829 305.661 983.884 303.568 983.735C289.725 982.75 279.435 979.236 272.536 973.526C265.266 967.509 261.498 959.046 261.498 948C261.498 936.94 265.274 928.393 272.628 922.232C279.577 916.409 289.951 912.712 303.949 911.453C305.952 911.214 307.711 910.247 308.971 908.833C310.237 907.414 311 905.544 311 903.509V895C311 893.343 310.328 891.843 309.243 890.757C308.157 889.672 306.657 889 305 889Z" fill="#B6B6B6" stroke="#141C3A" stroke-width="8"/>
<path fill-rule="evenodd" clip-rule="evenodd" d="M292.786 912H62C52.0589 912 43.0589 916.029 36.5442 922.544C30.0294 929.059 26 938.059 26 948C26 957.941 30.0294 966.941 36.5442 973.456C43.0589 979.971 52.0589 984 62 984C170.896 984 248.328 984.208 294.297 984.623V984.623C286.25 982.45 277.023 979.37 270.47 972.641C265.207 967.235 261.498 959.538 261.498 948C261.498 936.353 265.277 928.627 270.619 923.24C276.75 917.057 285.176 914.042 292.786 912Z" fill="white" stroke="#141C3A" stroke-width="8"/>
<path fill-rule="evenodd" clip-rule="evenodd" d="M57.9252 957H260.075C262.243 957 264 958.791 264 961C264 963.209 262.243 965 260.075 965H57.9252C55.7574 965 54 963.209 54 961C54 958.791 55.7574 957 57.9252 957Z" fill="#141C3A"/>
<path fill-rule="evenodd" clip-rule="evenodd" d="M57.9252 931H260.075C262.243 931 264 932.791 264 935C264 937.209 262.243 939 260.075 939H57.9252C55.7574 939 54 937.209 54 935C54 932.791 55.7574 931 57.9252 931Z" fill="#141C3A"/>
<path d="M250.154 689.357C245.247 684.994 240.339 680.631 235.432 676.268C227.611 669.323 219.812 662.355 211.992 655.41C210.199 653.829 208.406 652.227 206.636 650.646C206.636 652.739 206.636 654.853 206.636 656.946C211.543 652.583 216.451 648.22 221.359 643.857C229.179 636.912 236.978 629.944 244.799 622.999C246.591 621.418 248.384 619.816 250.154 618.235C251.902 616.677 251.88 613.494 250.154 611.936C248.294 610.221 245.695 610.266 243.813 611.936C238.905 616.299 233.997 620.662 229.09 625.025C221.269 631.97 213.471 638.937 205.65 645.882C203.857 647.463 202.064 649.066 200.294 650.646C198.569 652.182 198.569 655.41 200.294 656.946C205.202 661.309 210.109 665.672 215.017 670.035C222.838 676.98 230.636 683.948 238.457 690.893C240.249 692.473 242.042 694.076 243.813 695.656C245.56 697.215 248.451 697.504 250.154 695.656C251.723 693.965 252.014 691.026 250.154 689.357Z" fill="#141C3A"/>
<path d="M324.886 618.246C329.793 622.609 334.701 626.972 339.609 631.335C347.429 638.28 355.228 645.247 363.048 652.193C364.841 653.773 366.634 655.376 368.404 656.956C368.404 654.864 368.404 652.749 368.404 650.657C363.497 655.02 358.589 659.383 353.681 663.746C345.861 670.691 338.062 677.658 330.242 684.604C328.449 686.184 326.656 687.787 324.886 689.367C323.138 690.926 323.16 694.109 324.886 695.667C326.746 697.381 329.345 697.337 331.228 695.667C336.135 691.304 341.043 686.941 345.95 682.578C353.771 675.633 361.569 668.665 369.39 661.72C371.183 660.14 372.976 658.537 374.746 656.956C376.471 655.42 376.471 652.193 374.746 650.657C369.838 646.294 364.931 641.931 360.023 637.568C352.202 630.622 344.404 623.655 336.583 616.71C334.791 615.129 332.998 613.527 331.228 611.946C329.48 610.388 326.589 610.099 324.886 611.946C323.317 613.638 323.026 616.576 324.886 618.246Z" fill="#141C3A"/>
<path d="M271.538 715.572C272.883 711.565 274.205 707.558 275.549 703.529C278.754 693.89 281.958 684.274 285.163 674.635C289.017 663.015 292.872 651.418 296.748 639.798C300.087 629.759 303.426 619.719 306.765 609.68C308.356 604.805 310.149 599.952 311.628 595.01C311.65 594.943 311.673 594.877 311.695 594.81C312.435 592.606 310.844 589.846 308.558 589.334C306.093 588.777 303.83 590.068 303.045 592.45C301.701 596.457 300.379 600.464 299.034 604.493C295.83 614.132 292.625 623.748 289.421 633.387C285.566 645.007 281.712 656.604 277.835 668.224C274.496 678.264 271.157 688.303 267.818 698.342C266.227 703.195 264.434 708.048 262.955 712.99C262.933 713.056 262.911 713.123 262.888 713.19C262.149 715.394 263.74 718.154 266.025 718.666C268.49 719.223 270.754 717.931 271.538 715.572Z" fill="#141C3A"/>
</svg>
