<svg width="40" height="40" viewBox="0 0 40 40" fill="none" xmlns="http://www.w3.org/2000/svg">
<path fill-rule="evenodd" clip-rule="evenodd" d="M20 8C12.8175 8 7 13.7352 7 20.8162C7 26.4873 10.7212 31.2774 15.8887 32.9755C16.5387 33.0877 16.7825 32.7032 16.7825 32.3667C16.7825 32.0624 16.7663 31.0531 16.7663 29.9797C13.5 30.5725 12.655 29.1947 12.395 28.4738C12.2487 28.1054 11.615 26.9679 11.0625 26.6636C10.6075 26.4232 9.9575 25.8305 11.0463 25.8145C12.07 25.7985 12.8013 26.7437 13.045 27.1281C14.215 29.0666 16.0838 28.5219 16.8313 28.1855C16.945 27.3524 17.2862 26.7917 17.66 26.4713C14.7675 26.1509 11.745 25.0455 11.745 20.1433C11.745 18.7496 12.2488 17.5961 13.0775 16.699C12.9475 16.3786 12.4925 15.0649 13.2075 13.3027C13.2075 13.3027 14.2963 12.9663 16.7825 14.6163C17.8225 14.328 18.9275 14.1838 20.0325 14.1838C21.1375 14.1838 22.2425 14.328 23.2825 14.6163C25.7688 12.9502 26.8575 13.3027 26.8575 13.3027C27.5725 15.0649 27.1175 16.3786 26.9875 16.699C27.8163 17.5961 28.32 18.7335 28.32 20.1433C28.32 25.0615 25.2813 26.1509 22.3888 26.4713C22.86 26.8718 23.2663 27.6408 23.2663 28.8423C23.2663 30.5565 23.25 31.9342 23.25 32.3667C23.25 32.7032 23.4938 33.1037 24.1438 32.9755C29.2788 31.2774 33 26.4713 33 20.8162C33 13.7352 27.1825 8 20 8Z" fill="#1B1F23"/>
</svg>
