<svg width="40" height="40" viewBox="0 0 40 40" fill="none" xmlns="http://www.w3.org/2000/svg">
<path d="M10.85 13.9C10.85 13.6 10.7 13.3 10.55 13.15L8.3 10.45V10H15.2L20.6 21.85L25.4 10H32V10.45L30.05 12.25C29.9 12.4 29.75 12.55 29.9 12.85V26.35C29.9 26.5 29.9 26.8 30.05 26.95L31.85 28.75V29.2H22.4V28.75L24.35 26.8C24.5 26.65 24.5 26.5 24.5 26.2V15.25L19.1 28.9H18.5L12.2 15.25V24.4C12.2 24.85 12.35 25.15 12.5 25.45L15.05 28.45V28.9H8V28.45L10.55 25.45C10.85 25.15 11 24.85 10.85 24.4V13.9Z" fill="black"/>
</svg>
